<?xml version="1.0" encoding="UTF-8"?>
<!-- Uploaded to: SVG Find, www.svgrepo.com, Generator: SVG Find Mixer Tools -->
<svg fill="#000000" width="800px" height="800px" version="1.1" viewBox="144 144 512 512" xmlns="http://www.w3.org/2000/svg">
 <g>
  <path d="m356.57 534.52h-12.281c-27.141 0-49.246-22.105-49.246-49.246v-41.691l-31.656-28.148c-4.4922-3.9688-7.0547-9.6758-7.0547-15.68s2.5625-11.715 7.0547-15.703l31.656-28.133v-41.184c0-27.145 22.105-49.246 49.246-49.246h12.281c11.609 0 20.992 9.4062 20.992 20.992 0 11.586-9.3828 20.992-20.992 20.992l-12.281-0.003906c-3.9453 0-7.2617 3.3164-7.2617 7.2656v50.633c0 6.0039-2.5625 11.715-7.0547 15.703l-21.055 18.703 21.055 18.727c4.4922 3.9648 7.0547 9.6719 7.0547 15.656v51.117c0 3.9453 3.3164 7.2617 7.2617 7.2617h12.281c11.609 0 20.992 9.4062 20.992 20.992 0 11.586-9.4062 20.992-20.992 20.992z"/>
  <path d="m455.67 534.52h-12.258c-11.609 0-20.992-9.4062-20.992-20.992 0-11.586 9.3828-20.992 20.992-20.992h12.258c3.9453 0 7.2852-3.3359 7.2852-7.2617v-51.117c0-6.0039 2.5625-11.715 7.0547-15.68l21.055-18.727-21.055-18.703c-4.4922-3.9883-7.0547-9.6992-7.0547-15.703v-50.609c0-3.9453-3.3359-7.2617-7.2852-7.2617h-12.258c-11.609 0-20.992-9.4062-20.992-20.992 0-11.586 9.3828-20.992 20.992-20.992h12.258c27.164 0 49.27 22.105 49.27 49.246v41.184l31.656 28.129c4.4922 3.9883 7.0547 9.6992 7.0547 15.703s-2.5625 11.715-7.0547 15.68l-31.656 28.148v41.691c0 27.145-22.105 49.25-49.27 49.25z"/>
  <path d="m505 609.92h-209.96c-57.875 0-104.94-47.062-104.94-104.92v-120.7c0-11.586 9.3828-20.992 20.992-20.992s20.992 9.4062 20.992 20.992v120.7c-0.003907 34.699 28.254 62.934 62.953 62.934h209.96c34.699 0 62.934-28.234 62.934-62.934v-209.98c0-34.719-28.234-62.953-62.934-62.953h-209.96c-34.699 0-62.957 28.234-62.957 62.953v17.719c0 11.586-9.3828 20.992-20.992 20.992s-20.992-9.4062-20.992-20.992v-17.719c0-57.852 47.066-104.94 104.94-104.94h209.96c57.855 0 104.92 47.086 104.92 104.94v209.98c0 57.855-47.062 104.92-104.92 104.92z"/>
 </g>
</svg>