<svg width="17" height="17" viewBox="0 0 17 17" fill="none" xmlns="http://www.w3.org/2000/svg">
<path d="M7.82379 2.35277H3.55892C2.14567 2.35277 1 3.4984 1 4.91161V13.4412C1 14.8544 2.14567 16 3.55892 16H12.0887C13.5019 16 14.6476 14.8544 14.6476 13.4412L14.6476 9.17638M5.26487 11.7352L8.36826 11.1099C8.53301 11.0767 8.68429 10.9956 8.80309 10.8767L15.7503 3.92587C16.0834 3.59262 16.0832 3.05242 15.7498 2.71945L14.2782 1.24948C13.9449 0.916642 13.405 0.916869 13.072 1.24999L6.12407 8.20154C6.0055 8.32018 5.92454 8.47114 5.89131 8.63554L5.26487 11.7352Z" stroke="#6A7384" stroke-width="1.5" stroke-linecap="round" stroke-linejoin="round"/>
</svg>
