<svg width="28" height="28" viewBox="0 0 28 28" fill="none" xmlns="http://www.w3.org/2000/svg">
<path d="M17.4617 3V7.125C17.4617 7.88439 18.0816 8.5 18.8463 8.5H23M20.9231 5.0625C20.3069 4.51495 19.6674 3.86554 19.2638 3.44376C18.9951 3.16309 18.624 3 18.2341 3H7.76927C6.23991 3 5.00012 4.23121 5.00011 5.74999L5 22.2499C4.99999 23.7687 6.23978 24.9999 7.76915 24.9999L20.2304 25C21.7598 25 22.9996 23.7688 22.9996 22.2501L23 7.67252C23 7.32093 22.8649 6.98296 22.6192 6.72984C22.1648 6.26178 21.4061 5.49164 20.9231 5.0625Z" stroke="#262D38" stroke-width="1.5" stroke-linecap="round" stroke-linejoin="round"/>
</svg>
