<svg width="28" height="28" viewBox="0 0 28 28" fill="none" xmlns="http://www.w3.org/2000/svg">
<path d="M22.6842 12.2V8.4C22.6842 7.84772 22.2365 7.4 21.6842 7.4H13.8458C13.5744 7.4 13.3146 7.28968 13.1261 7.09437L11.4002 5.30563C11.2117 5.11032 10.952 5 10.6805 5H4C3.44772 5 3 5.44772 3 6V22C3 22.5523 3.44772 23 4 23H5.47368C6.02597 23 6.47368 22.5523 6.47368 22V21.9754C6.47368 21.8593 6.49387 21.7442 6.53335 21.6351L9.70864 12.8597C9.85192 12.4638 10.2279 12.2 10.649 12.2H23.6279C24.306 12.2 24.7875 12.8606 24.5799 13.5062L21.7495 22.3062C21.6165 22.7197 21.2318 23 20.7975 23H5.31579" stroke="#262D38" stroke-width="1.5" stroke-linecap="round" stroke-linejoin="round"/>
</svg>
