<svg width="28" height="28" viewBox="0 0 28 28" fill="none" xmlns="http://www.w3.org/2000/svg">
<path d="M8.09375 23.1875V17.2812C8.09375 16.5564 8.68138 15.9688 9.40625 15.9688H18.5938C19.3186 15.9688 19.9062 16.5564 19.9062 17.2812V23.8438M19.9062 4.8125V7.4375C19.9062 8.16237 19.3186 8.75 18.5938 8.75L9.40625 8.75C8.68138 8.75 8.09375 8.16237 8.09375 7.4375L8.09375 3.5M23.841 8.09098L19.909 4.15902C19.4871 3.73706 18.9148 3.5 18.318 3.5H5.75C4.50734 3.5 3.5 4.50734 3.5 5.75V22.25C3.5 23.4927 4.50734 24.5 5.75 24.5H22.25C23.4927 24.5 24.5 23.4927 24.5 22.25V9.68197C24.5 9.08523 24.2629 8.51294 23.841 8.09098Z" stroke="#262D38" stroke-width="1.5" stroke-linecap="round"/>
</svg>
