<svg width="300" height="116" viewBox="0 0 300 116" fill="none" xmlns="http://www.w3.org/2000/svg">
<mask id="path-1-inside-1_450_9435" fill="white">
<path d="M156.904 10.0782C157.084 10.3826 157.411 10.5693 157.765 10.5693H294C297.314 10.5693 300 13.2558 300 16.5693V110C300 113.314 297.314 116 294 116H6C2.68629 116 0 113.314 0 110V16.5693C0.000171504 13.2558 2.6864 10.5693 6 10.5693H142.986C143.34 10.5693 143.667 10.3826 143.847 10.0783L149.515 0.49122C149.902 -0.163559 150.85 -0.163528 151.237 0.491276L156.904 10.0782Z"/>
</mask>
<path d="M156.904 10.0782C157.084 10.3826 157.411 10.5693 157.765 10.5693H294C297.314 10.5693 300 13.2558 300 16.5693V110C300 113.314 297.314 116 294 116H6C2.68629 116 0 113.314 0 110V16.5693C0.000171504 13.2558 2.6864 10.5693 6 10.5693H142.986C143.34 10.5693 143.667 10.3826 143.847 10.0783L149.515 0.49122C149.902 -0.163559 150.85 -0.163528 151.237 0.491276L156.904 10.0782Z" fill="white"/>
<path d="M300 16.5693H301V16.5693L300 16.5693ZM0 16.5693L-1 16.5693V16.5693H0ZM143.847 10.0783L142.986 9.56934L143.847 10.0783ZM149.515 0.49122L150.376 1.00015L149.515 0.49122ZM151.237 0.491276L152.098 -0.017603L151.237 0.491276ZM156.904 10.0782L157.765 9.56934L156.904 10.0782ZM157.765 10.5693V11.5693H294V10.5693V9.56934H157.765V10.5693ZM294 10.5693V11.5693C296.761 11.5693 299 13.808 299 16.5694L300 16.5693L301 16.5693C301 12.7035 297.866 9.56934 294 9.56934V10.5693ZM300 16.5693H299V110H300H301V16.5693H300ZM300 110H299C299 112.761 296.761 115 294 115V116V117C297.866 117 301 113.866 301 110H300ZM294 116V115H6V116V117H294V116ZM6 116V115C3.23858 115 1 112.761 1 110H0H-1C-1 113.866 2.13401 117 6 117V116ZM0 110H1V16.5693H0H-1V110H0ZM0 16.5693L1 16.5694C1.00014 13.808 3.23873 11.5693 6 11.5693V10.5693V9.56934C2.13406 9.56934 -0.9998 12.7035 -1 16.5693L0 16.5693ZM6 10.5693V11.5693H142.986V10.5693V9.56934H6V10.5693ZM143.847 10.0783L144.708 10.5872L150.376 1.00015L149.515 0.49122L148.654 -0.0177128L142.986 9.56934L143.847 10.0783ZM151.237 0.491276L150.376 1.00016L156.043 10.5871L156.904 10.0782L157.765 9.56934L152.098 -0.017603L151.237 0.491276ZM142.986 10.5693V11.5693C143.693 11.5693 144.348 11.1959 144.708 10.5872L143.847 10.0783L142.986 9.56934V10.5693ZM149.515 0.49122L150.376 1.00015V1.00016L151.237 0.491276L152.098 -0.017603C151.323 -1.32721 149.429 -1.32728 148.654 -0.0177128L149.515 0.49122ZM157.765 10.5693V9.56934L156.904 10.0782L156.043 10.5871C156.403 11.1959 157.058 11.5693 157.765 11.5693V10.5693Z" fill="#CDD2DB" mask="url(#path-1-inside-1_450_9435)"/>
</svg>
