<svg width="24" height="24" viewBox="0 0 24 24" fill="none" xmlns="http://www.w3.org/2000/svg">
<path d="M8 16.5576C9.10453 16.5576 9.99993 17.4531 10 18.5576C10 19.6622 9.10457 20.5576 8 20.5576C6.89543 20.5576 6 19.6622 6 18.5576C6.00007 17.4531 6.89547 16.5576 8 16.5576ZM15.5576 16.5576C16.6621 16.5576 17.5576 17.4531 17.5576 18.5576C17.5576 19.6622 16.6622 20.5576 15.5576 20.5576C14.453 20.5576 13.5576 19.6622 13.5576 18.5576C13.5577 17.4531 14.4531 16.5576 15.5576 16.5576ZM8 10C9.10455 10 9.99997 10.8955 10 12C10 13.1046 9.10457 14 8 14C6.89543 14 6 13.1046 6 12C6.00003 10.8955 6.89545 10 8 10ZM15.5576 10C16.6622 10 17.5576 10.8955 17.5576 12C17.5576 13.1046 16.6622 14 15.5576 14C14.453 14 13.5576 13.1046 13.5576 12C13.5577 10.8955 14.4531 10 15.5576 10ZM8 3.44238C9.10457 3.44238 10 4.33781 10 5.44238C10 6.54695 9.10457 7.44238 8 7.44238C6.89543 7.44238 6 6.54695 6 5.44238C6 4.33781 6.89543 3.44238 8 3.44238ZM15.5576 3.44238C16.6622 3.44238 17.5576 4.33781 17.5576 5.44238C17.5576 6.54695 16.6622 7.44238 15.5576 7.44238C14.453 7.44238 13.5576 6.54695 13.5576 5.44238C13.5576 4.33781 14.453 3.44238 15.5576 3.44238Z" fill="#6A7384"/>
</svg>
