<svg width="20" height="20" viewBox="0 0 20 20" fill="none" xmlns="http://www.w3.org/2000/svg">
<path d="M8.82379 4.35277H4.55892C3.14567 4.35277 2 5.4984 2 6.91161V15.4412C2 16.8544 3.14567 18 4.55892 18H13.0887C14.5019 18 15.6476 16.8544 15.6476 15.4412L15.6476 11.1764M6.26487 13.7352L9.36826 13.1099C9.53301 13.0767 9.68429 12.9956 9.80309 12.8767L16.7503 5.92587C17.0834 5.59262 17.0832 5.05242 16.7498 4.71945L15.2782 3.24948C14.9449 2.91664 14.405 2.91687 14.072 3.24999L7.12407 10.2015C7.0055 10.3202 6.92454 10.4711 6.89131 10.6355L6.26487 13.7352Z" stroke="#6A7384" stroke-width="1.5" stroke-linecap="round" stroke-linejoin="round"/>
</svg>
