<?xml version="1.0" encoding="UTF-8"?>
<svg fill="#000000" width="150px" height="400px" viewBox="0 144 149 512" xmlns="http://www.w3.org/2000/svg">
  <g transform="translate(-455, 0)">
    <path d="m455.67 534.52h-12.258c-11.609 0-20.992-9.4062-20.992-20.992 0-11.586 9.3828-20.992 20.992-20.992h12.258c3.9453 0 7.2852-3.3359 7.2852-7.2617v-51.117c0-6.0039 2.5625-11.715 7.0547-15.68l21.055-18.727-21.055-18.703c-4.4922-3.9883-7.0547-9.6992-7.0547-15.703v-50.609c0-3.9453-3.3359-7.2617-7.2852-7.2617h-12.258c-11.609 0-20.992-9.4062-20.992-20.992 0-11.586 9.3828-20.992 20.992-20.992h12.258c27.164 0 49.27 22.105 49.27 49.246v41.184l31.656 28.129c4.4922 3.9883 7.0547 9.6992 7.0547 15.703s-2.5625 11.715-7.0547 15.68l-31.656 28.148v41.691c0 27.145-22.105 49.25-49.27 49.25z"/>
  </g>
</svg>