<svg width="32" height="32" viewBox="0 0 32 32" fill="none" xmlns="http://www.w3.org/2000/svg">
<path d="M0 6C0 2.68629 2.68629 0 6 0H26C29.3137 0 32 2.68629 32 6V26C32 29.3137 29.3137 32 26 32H6C2.68629 32 0 29.3137 0 26V6Z" fill="#E9F1FF"/>
<path d="M19.4617 5V9.125C19.4617 9.88439 20.0816 10.5 20.8463 10.5H25M22.9231 7.0625C22.3069 6.51495 21.6674 5.86554 21.2638 5.44376C20.9951 5.16309 20.624 5 20.2341 5H9.76927C8.23991 5 7.00012 6.23121 7.00011 7.74999L7 24.2499C6.99999 25.7687 8.23978 26.9999 9.76915 26.9999L22.2304 27C23.7598 27 24.9996 25.7688 24.9996 24.2501L25 9.67252C25 9.32093 24.8649 8.98296 24.6192 8.72984C24.1648 8.26178 23.4061 7.49164 22.9231 7.0625Z" stroke="#4882EE" stroke-width="1.5" stroke-linecap="round" stroke-linejoin="round"/>
</svg>
