<svg width="32" height="32" viewBox="0 0 32 32" fill="none" xmlns="http://www.w3.org/2000/svg">
<path d="M0 4C0 1.79086 1.79086 0 4 0H28C30.2091 0 32 1.79086 32 4V28C32 30.2091 30.2091 32 28 32H4C1.79086 32 0 30.2091 0 28V4Z" fill="#E9F1FF"/>
<path d="M24.6842 14.2V10.4C24.6842 9.84772 24.2365 9.4 23.6842 9.4H15.8458C15.5744 9.4 15.3146 9.28968 15.1261 9.09437L13.4002 7.30563C13.2117 7.11032 12.952 7 12.6805 7H6C5.44772 7 5 7.44772 5 8V24C5 24.5523 5.44772 25 6 25H7.47368C8.02597 25 8.47368 24.5523 8.47368 24V23.9754C8.47368 23.8593 8.49387 23.7442 8.53335 23.6351L11.7086 14.8597C11.8519 14.4638 12.2279 14.2 12.649 14.2H25.6279C26.306 14.2 26.7875 14.8606 26.5799 15.5062L23.7495 24.3062C23.6165 24.7197 23.2318 25 22.7975 25H7.31579" stroke="#4882EE" stroke-width="1.5" stroke-linecap="round" stroke-linejoin="round"/>
</svg>
